<svg width="18" height="18" viewBox="0 0 18 18" fill="none" xmlns="http://www.w3.org/2000/svg">
<g id="angle-small-down 1">
<path id="Vector" d="M14.0325 6.1575C13.9628 6.08721 13.8798 6.03141 13.7884 5.99333C13.697 5.95526 13.599 5.93565 13.5 5.93565C13.401 5.93565 13.3029 5.95526 13.2116 5.99333C13.1202 6.03141 13.0372 6.08721 12.9675 6.1575L9.53248 9.5925C9.46276 9.6628 9.37981 9.71859 9.28842 9.75667C9.19702 9.79475 9.09899 9.81435 8.99998 9.81435C8.90098 9.81435 8.80295 9.79475 8.71155 9.75667C8.62016 9.71859 8.53721 9.6628 8.46748 9.5925L5.03248 6.1575C4.96276 6.08721 4.87981 6.03141 4.78842 5.99333C4.69702 5.95526 4.59899 5.93565 4.49998 5.93565C4.40098 5.93565 4.30295 5.95526 4.21155 5.99333C4.12016 6.03141 4.03721 6.08721 3.96748 6.1575C3.8278 6.29802 3.74939 6.48811 3.74939 6.68625C3.74939 6.88439 3.8278 7.07448 3.96748 7.215L7.40998 10.6575C7.83186 11.0789 8.40373 11.3155 8.99998 11.3155C9.59624 11.3155 10.1681 11.0789 10.59 10.6575L14.0325 7.215C14.1722 7.07448 14.2506 6.88439 14.2506 6.68625C14.2506 6.48811 14.1722 6.29802 14.0325 6.1575Z" fill="white"/>
</g>
</svg>
