<svg width="24" height="24" viewBox="0 0 24 24" fill="none" xmlns="http://www.w3.org/2000/svg">
<g id="step-forward 1" clip-path="url(#clip0_2_580)">
<path id="Vector" d="M20 6.56815e-06C19.447 6.56815e-06 19 0.448007 19 1.00001V8.48201L9.363 0.783007C8.125 -0.125993 6.565 -0.255993 5.19 0.440007C3.818 1.13601 3 2.46901 3 4.00701V20C3 21.538 3.818 22.872 5.191 23.568C5.768 23.86 6.38 24.008 7.008 24.008C7.851 24.008 8.665 23.737 9.396 23.199L19 15.516V22.999C19 23.551 19.447 23.999 20 23.999C20.553 23.999 21 23.551 21 22.999V1.00001C21 0.448007 20.553 6.56815e-06 20 6.56815e-06ZM18.149 13.637L8.179 21.613C7.561 22.066 6.78 22.131 6.094 21.783C5.399 21.43 4.999 20.781 4.999 20V4.00701C4.999 3.22701 5.398 2.57701 6.093 2.22501C6.396 2.07201 6.711 1.99601 7.019 1.99601C7.42 1.99601 7.81 2.12301 8.147 2.37001L18.183 10.388C18.702 10.768 18.999 11.355 18.999 11.999C18.999 12.643 18.701 13.23 18.148 13.636L18.149 13.637Z" fill="white"/>
</g>
<defs>
<clipPath id="clip0_2_580">
<rect width="24" height="24" fill="white"/>
</clipPath>
</defs>
</svg>
