<svg width="24" height="24" viewBox="0 0 24 24" fill="none" xmlns="http://www.w3.org/2000/svg">
<g id="step-forward 2" clip-path="url(#clip0_2_587)">
<path id="Vector" d="M4 6.56815e-06C4.553 6.56815e-06 5 0.448007 5 1.00001V8.48201L14.637 0.783007C15.875 -0.125993 17.435 -0.255993 18.81 0.440007C20.182 1.13601 21 2.46901 21 4.00701V20C21 21.538 20.182 22.872 18.809 23.568C18.232 23.86 17.62 24.008 16.992 24.008C16.149 24.008 15.335 23.737 14.604 23.199L5 15.516V22.999C5 23.551 4.553 23.999 4 23.999C3.447 23.999 3 23.551 3 22.999V1.00001C3 0.448007 3.447 6.56815e-06 4 6.56815e-06ZM5.851 13.637L15.821 21.613C16.439 22.066 17.22 22.131 17.906 21.783C18.601 21.43 19.001 20.781 19.001 20V4.00701C19.001 3.22701 18.602 2.57701 17.907 2.22501C17.604 2.07201 17.289 1.99601 16.981 1.99601C16.58 1.99601 16.19 2.12301 15.853 2.37001L5.817 10.388C5.298 10.768 5.001 11.355 5.001 11.999C5.001 12.643 5.299 13.23 5.852 13.636L5.851 13.637Z" fill="white"/>
</g>
<defs>
<clipPath id="clip0_2_587">
<rect width="24" height="24" fill="white" transform="matrix(-1 0 0 1 24 0)"/>
</clipPath>
</defs>
</svg>
