<svg width="24" height="24" viewBox="0 0 24 24" fill="none" xmlns="http://www.w3.org/2000/svg">
<g id="rotate-right 1" clip-path="url(#clip0_2_585)">
<path id="Vector" d="M21.962 12.875C21.7692 15.1548 20.8027 17.3002 19.2229 18.9552C17.6431 20.6102 15.545 21.6754 13.2766 21.9739C11.0082 22.2725 8.70586 21.7866 6.75163 20.5967C4.79739 19.4069 3.30868 17.5846 2.53249 15.4324C1.75631 13.2801 1.73929 10.9271 2.48428 8.76383C3.22926 6.60055 4.69146 4.75699 6.62829 3.53901C8.56512 2.32103 10.8602 1.80184 13.1326 2.06758C15.4051 2.33332 17.5184 3.36801 19.122 5H16C15.7348 5 15.4804 5.10536 15.2929 5.29289C15.1054 5.48043 15 5.73478 15 6C15 6.26522 15.1054 6.51957 15.2929 6.70711C15.4804 6.89464 15.7348 7 16 7H20.143C20.6354 6.99974 21.1076 6.804 21.4558 6.45581C21.804 6.10761 21.9997 5.63543 22 5.143V1C22 0.734784 21.8946 0.48043 21.7071 0.292893C21.5196 0.105357 21.2652 0 21 0C20.7348 0 20.4804 0.105357 20.2929 0.292893C20.1054 0.48043 20 0.734784 20 1V3.078C17.9887 1.28073 15.4299 0.214484 12.7375 0.0517113C10.0451 -0.111061 7.37645 0.639157 5.16325 2.18103C2.95006 3.72291 1.32169 5.96628 0.54151 8.54832C-0.23867 11.1304 -0.125041 13.9001 0.864018 16.4095C1.85308 18.919 3.65973 21.0214 5.99179 22.3768C8.32384 23.7322 11.0449 24.2614 13.715 23.8786C16.385 23.4958 18.8479 22.2236 20.7052 20.2676C22.5625 18.3116 23.7058 15.7863 23.95 13.1C23.9629 12.9607 23.9467 12.8203 23.9023 12.6877C23.858 12.555 23.7865 12.4331 23.6924 12.3296C23.5983 12.2261 23.4837 12.1434 23.3559 12.0866C23.2281 12.0299 23.0899 12.0004 22.95 12C22.706 11.9971 22.4697 12.085 22.2871 12.2468C22.1045 12.4085 21.9886 12.6325 21.962 12.875Z" fill="white"/>
</g>
<defs>
<clipPath id="clip0_2_585">
<rect width="24" height="24" fill="white"/>
</clipPath>
</defs>
</svg>
